# xmcd
#
# Track frame offsets: 
#        150
#        14060
#        26184
#        38802
#        50544
#        62686
#        73277
#        86013
#        97333
#        106157
#        117006
#        127330
#        137249
#        147999
#        158029
#        168624
#        180039
#        191857
#        201924
#        211880
#        224086
#        234885
#        246244
#        257957
#        270127
#        280596
#        289153
#        300964
#        311662
#        322641
#        333440
#        346734
#
# Disc length: 4752 seconds
#
# Revision: 2
# Processed by: cddbd v1.5.2PL0 Copyright (c) Steve Scherf et al.
# Submitted via: ExactAudioCopyFreeDBPlugin 1.0
#
DISCID=e5128e20
DTITLE=Various Artist - Doc Pomus:  Singer and Songwriter
DYEAR=2012
DGENRE=Rhythm and Blues
TTITLE0=Gatemouth Moore - Love Doctor Blues
TTITLE1=Big Joe Turner - Boogie Woogie Country Girl
TTITLE2=LaVern Baker - My Happiness Forever
TTITLE3=Ray Charles - Lonely Avenue
TTITLE4=Clyde McPhatter - My Island of Dreams
TTITLE5=The Coasters - Young Blood
TTITLE6=Mickey and Sylvia - Say the Word
TTITLE7=Ray Charles - You Be My Baby
TTITLE8=Bobby Darin - Plain Jane
TTITLE9=Ray Charles - Carryin' The Load
TTITLE10=LaVern Baker - You're Teasing Me
TTITLE11=Fabian - I'm a Man
TTITLE12=Fabian - Turn Me Loose
TTITLE13=Fabian - Hound Dog Man
TTITLE14=Frankie Avalon - Two Fools
TTITLE15=Bobby Rydell - I Dig Girls
TTITLE16=Dion and The Belmonts - A Teenager in Love
TTITLE17=Joe Brown - People Gotta Talk
TTITLE18=Joe Brown - Comes the Day
TTITLE19=Little Tony and His Brothers - Too Good
TTITLE20=Dion - Having Fun
TTITLE21=The Drifters - This Magic Moment
TTITLE22=The Drifters - Save the Last Dance for Me
TTITLE23=Elvis Presley - A Mess of Blues
TTITLE24=Ben E. King - First Taste of Love
TTITLE25=Elvis Presley - Surrender
TTITLE26=Drifters - Sweets for My Sweet
TTITLE27=Ben E. King - Here Come the Night
TTITLE28=Ben E. King - Souvenir of Mexico
TTITLE29=Ben E. King - Ecstasy
TTITLE30=Ral Donner - So Close to Heaven
TTITLE31=Elvis Presley - (Marie's The Name of) His Latest Flame
EXTD=
EXTT0=
EXTT1=
EXTT2=
EXTT3=
EXTT4=
EXTT5=
EXTT6=
EXTT7=
EXTT8=
EXTT9=
EXTT10=
EXTT11=
EXTT12=
EXTT13=
EXTT14=
EXTT15=
EXTT16=
EXTT17=
EXTT18=
EXTT19=
EXTT20=
EXTT21=
EXTT22=
EXTT23=
EXTT24=
EXTT25=
EXTT26=
EXTT27=
EXTT28=
EXTT29=
EXTT30=
EXTT31=
PLAYORDER=
